HIERARCHY
ROOT Hips
{
	OFFSET 0.000000 0.000000 0.000000 
	CHANNELS 6 Xposition Yposition Zposition Zrotation Xrotation Yrotation
	JOINT Spine
	{
		OFFSET -0.000000 8.061080 0.000000 
		CHANNELS 3 Zrotation Xrotation Yrotation
		JOINT Spine1
		{
			OFFSET -0.000000 20.532677 0.000000 
			CHANNELS 3 Zrotation Xrotation Yrotation
			JOINT Neck
			{
				OFFSET -0.000000 22.498795 0.000000 
				CHANNELS 3 Zrotation Xrotation Yrotation
				JOINT Head
				{
					OFFSET -0.000000 15.237408 1.966117 
					CHANNELS 3 Zrotation Xrotation Yrotation
					End Site
					{
						OFFSET -0.000000 19.661171 0.000000 
					}
				}
			}
			JOINT LeftShoulder
			{
				OFFSET 3.894675 16.042269 -0.398189 
				CHANNELS 3 Zrotation Xrotation Yrotation
				JOINT LeftArm
				{
					OFFSET 19.709621 0.000000 0.000000 
					CHANNELS 3 Zrotation Xrotation Yrotation
					JOINT LeftForeArm
					{
						OFFSET 25.566900 0.000000 0.000000 
						CHANNELS 3 Zrotation Xrotation Yrotation
						JOINT LeftHand
						{
							OFFSET 25.401896 0.000000 0.000000 
							CHANNELS 3 Zrotation Xrotation Yrotation
							End Site
							{
								OFFSET 14.745877 0.000000 0.000000 
							}
						}
					}
				}
			}
			JOINT RightShoulder
			{
				OFFSET -3.930777 16.042269 -0.398189 
				CHANNELS 3 Zrotation Xrotation Yrotation
				JOINT RightArm
				{
					OFFSET -19.709621 0.000000 0.000000 
					CHANNELS 3 Zrotation Xrotation Yrotation
					JOINT RightForeArm
					{
						OFFSET -25.566900 0.000000 0.000000 
						CHANNELS 3 Zrotation Xrotation Yrotation
						JOINT RightHand
						{
							OFFSET -25.401896 0.000000 0.000000 
							CHANNELS 3 Zrotation Xrotation Yrotation
							End Site
							{
								OFFSET -14.745877 0.000000 0.000000 
							}
						}
					}
				}
			}
		}
	}
	JOINT LeftUpLeg
	{
		OFFSET 9.830585 0.000000 0.000000 
		CHANNELS 3 Zrotation Xrotation Yrotation
		JOINT LeftLeg
		{
			OFFSET -0.000000 -46.474842 0.000000 
			CHANNELS 3 Zrotation Xrotation Yrotation
			JOINT LeftFoot
			{
				OFFSET -0.000000 -30.290520 0.000000 
				CHANNELS 3 Zrotation Xrotation Yrotation
				JOINT LeftToeBase
				{
					OFFSET -0.000000 -6.389880 14.745877 
					CHANNELS 3 Zrotation Xrotation Yrotation
					End Site
					{
						OFFSET -0.000000 0.000000 3.932234 
					}
				}
			}
		}
	}
	JOINT RightUpLeg
	{
		OFFSET -9.830585 0.000000 0.000000 
		CHANNELS 3 Zrotation Xrotation Yrotation
		JOINT RightLeg
		{
			OFFSET -0.000000 -46.474842 0.000000 
			CHANNELS 3 Zrotation Xrotation Yrotation
			JOINT RightFoot
			{
				OFFSET -0.000000 -30.290520 0.000000 
				CHANNELS 3 Zrotation Xrotation Yrotation
				JOINT RightToeBase
				{
					OFFSET -0.000000 -6.389880 14.745877 
					CHANNELS 3 Zrotation Xrotation Yrotation
					End Site
					{
						OFFSET -0.000000 0.000000 3.932234 
					}
				}
			}
		}
	}
}
MOTION
Frames: 12
Frame Time: 0.010000
0.000000 86.347260 0.000000 -2.546819 5.840085 8.201625 1.659351 -6.924206 -0.967667 1.417877 -4.471531 -0.303551 3.099330 9.052523 1.462354 0.655348 8.994161 2.035815 2.311292 8.191781 -2.187780 -70.344322 26.981354 -23.598091 -13.278968 0.459145 -3.702856 4.160062 0.294123 7.334793 -7.818872 8.656043 -9.383385 48.504425 57.713444 46.178810 6.909297 -7.911455 8.945950 -9.748401 -8.926143 5.677942 6.240787 1.038020 3.176163 1.743127 -6.298032 -0.193919 0.189553 3.505538 -2.431014 0.000000 0.000000 0.000000 -5.801734 -4.089225 7.121539 8.922292 4.108037 -14.954975 -4.409258 -0.378617 -6.682004 0.000000 0.000000 0.000000 
0.018924 86.361099 0.040198 -2.486955 5.681282 8.104379 1.477277 -6.764989 -0.946227 1.709509 -4.524322 -0.279802 2.903263 9.098833 1.500345 0.734591 9.029229 2.017972 2.229393 8.142070 -2.178710 -70.495552 27.018562 -23.490990 -13.245028 0.453636 -3.650408 4.216532 0.299838 7.325556 -7.948095 8.648033 -9.272006 48.584312 57.972874 45.969231 6.639083 -8.013400 9.083219 -9.764283 -9.011318 5.627656 6.185065 1.273875 3.215724 1.753617 -6.355968 -0.169453 0.184319 3.574224 -2.401902 0.000000 0.000000 0.000000 -5.823761 -3.879110 7.235907 8.886072 4.058512 -14.236964 -4.742531 -0.354748 -7.178717 0.000000 0.000000 0.000000 
0.002029 86.350777 -0.000392 -2.562510 5.847044 8.190138 1.752054 -7.018745 -0.989211 1.272336 -4.326991 -0.320446 3.208079 9.064901 1.517692 0.586630 8.901468 2.131097 2.373693 8.163635 -2.196165 -70.304558 26.958639 -23.628515 -13.276865 0.443430 -3.688616 4.169296 0.282755 7.347137 -7.687033 8.651114 -9.326356 48.630806 57.635387 46.016724 6.881132 -7.823153 9.026432 -9.975841 -8.850162 5.657436 6.256927 1.025973 3.180908 1.738678 -6.282098 -0.185852 0.195582 3.498158 -2.438033 0.000000 0.000000 0.000000 -5.762377 -4.051542 7.162979 8.870806 4.061643 -13.758901 -4.974981 -0.374787 -7.533971 0.000000 0.000000 0.000000 
0.017189 86.356735 0.054332 -2.474521 5.688268 8.119589 1.499030 -6.736973 -0.993345 1.671818 -4.567339 -0.296691 2.950901 9.147647 1.528919 0.634739 8.994969 2.079643 2.244241 8.193586 -2.074239 -70.412521 27.066620 -23.588476 -13.291136 0.457319 -3.642370 4.229528 0.306256 7.345659 -7.949824 8.718599 -9.304862 48.383713 57.914867 46.223751 6.734557 -8.019412 9.064845 -9.747788 -9.024529 5.646365 6.180649 1.274338 3.201517 1.744526 -6.351860 -0.191176 0.206147 3.555432 -2.415771 0.000000 0.000000 0.000000 -5.853468 -3.897708 7.203400 8.920362 4.080627 -14.932242 -4.409141 -0.363843 -6.678391 0.000000 0.000000 0.000000 
0.007102 86.346985 0.018037 -2.537469 5.823041 8.179824 1.668940 -6.893835 -1.001693 1.416721 -4.474431 -0.315057 3.090531 9.043629 1.508218 0.621588 9.023602 2.087856 2.401981 8.267770 -2.015670 -70.355453 26.816578 -23.779062 -13.438074 0.600000 -3.632761 4.232875 0.445892 7.397105 -7.788600 8.624629 -9.376572 48.348904 57.914837 46.256653 6.748699 -8.002993 9.044708 -9.777578 -9.009115 5.641415 6.230412 1.072246 3.189673 1.747467 -6.291789 -0.186987 0.176000 3.495268 -2.430924 0.000000 0.000000 0.000000 -5.809991 -4.066425 7.134931 8.924778 4.114850 -14.953952 -4.406963 -0.388443 -6.680833 0.000000 0.000000 0.000000 
0.019922 86.361977 0.053826 -2.483557 5.695517 8.107434 1.713531 -6.930623 -0.966403 1.274500 -4.242880 -0.312483 3.213276 9.069063 1.545433 0.548298 8.916750 2.168761 2.381433 8.145085 -2.211193 -70.289703 26.970768 -23.619537 -13.298591 0.428312 -3.672877 4.199085 0.282398 7.352149 -7.684871 8.652610 -9.320476 48.571453 57.650768 46.075291 6.870215 -7.827578 9.042112 -9.992322 -8.854126 5.642087 6.186569 1.262155 3.211318 1.739248 -6.335886 -0.156945 0.225012 3.552747 -2.452570 0.000000 0.000000 0.000000 -5.819424 -3.861849 7.237110 8.866602 4.041813 -13.741405 -4.971607 -0.363955 -7.526420 0.000000 0.000000 0.000000 
0.019155 86.357666 0.062350 -2.471224 5.692566 8.115814 1.504274 -6.737783 -1.011738 1.675817 -4.563012 -0.302887 2.942261 9.140106 1.552664 0.622176 9.037599 2.104490 2.252714 8.230697 -2.075032 -70.422440 26.847483 -23.580893 -13.404105 0.575671 -3.657822 4.231478 0.419397 7.390706 -7.948037 8.723429 -9.311285 48.336380 57.922218 46.279045 6.721975 -8.010846 9.073941 -9.773048 -9.015001 5.625667 6.171950 1.268954 3.214759 1.742918 -6.340337 -0.174417 0.202834 3.562700 -2.403518 0.000000 0.000000 0.000000 -5.855665 -3.901030 7.187074 8.920960 4.096181 -14.941834 -4.402469 -0.379291 -6.671939 0.000000 0.000000 0.000000 
0.019348 86.356613 0.064788 -2.468802 5.692349 8.116064 1.630783 -6.835396 -0.978881 1.428366 -4.378571 -0.307092 3.092449 9.038733 1.523122 0.586466 9.064862 2.110589 2.323990 8.188020 -2.187292 -70.273491 27.048523 -23.653822 -13.300858 0.426973 -3.660784 4.189193 0.279780 7.345794 -7.814792 8.656737 -9.377487 48.617775 57.714790 46.059120 6.788999 -7.863562 9.054802 -9.802148 -8.873612 5.624953 6.171496 1.268654 3.215073 1.743298 -6.330714 -0.189614 0.219049 3.544930 -2.405173 0.000000 0.000000 0.000000 -5.857436 -3.897920 7.189180 8.921051 4.094863 -14.934912 -4.405416 -0.386204 -6.677983 0.000000 0.000000 0.000000 
0.020871 86.356995 0.068545 -2.465594 5.702773 8.112140 1.496057 -6.754919 -1.021991 1.690928 -4.551710 -0.305854 2.943671 9.155217 1.550160 0.594767 9.040999 2.108212 2.248494 8.228497 -2.089105 -70.424591 26.816803 -23.566406 -13.415014 0.585990 -3.662369 4.266844 0.431123 7.393505 -7.953319 8.719803 -9.316875 48.318092 57.918205 46.303455 6.725425 -8.005231 9.067182 -9.771217 -9.007872 5.609959 6.163409 1.261135 3.214304 1.740281 -6.336602 -0.174028 0.211540 3.565689 -2.379465 0.000000 0.000000 0.000000 -5.861457 -3.905929 7.181536 8.916058 4.096745 -14.932470 -4.402884 -0.383322 -6.673501 0.000000 0.000000 0.000000 
0.011329 86.346451 0.030890 -2.529398 5.837723 8.171173 1.675706 -6.918176 -1.032367 1.420332 -4.446574 -0.325658 3.103625 9.042749 1.524359 0.565293 9.073793 2.118632 2.411382 8.223663 -2.050781 -70.345505 26.879465 -23.754145 -13.428791 0.561429 -3.609662 4.225461 0.409074 7.376435 -7.792610 8.615627 -9.370028 48.351856 57.890472 46.272614 6.736098 -7.977947 9.045600 -9.756015 -8.979332 5.608107 6.217938 1.068502 3.194214 1.745908 -6.285583 -0.185228 0.208193 3.486608 -2.450448 0.000000 0.000000 0.000000 -5.822886 -4.078176 7.117921 8.929063 4.133416 -14.939198 -4.400542 -0.400843 -6.674046 0.000000 0.000000 0.000000 
0.021922 86.355850 0.074328 -2.463883 5.695112 8.107074 1.504590 -6.742258 -1.029579 1.689584 -4.554125 -0.308490 2.952907 9.159021 1.545635 0.570393 9.058805 2.110557 2.251627 8.220383 -2.079654 -70.418533 26.863817 -23.576633 -13.390392 0.580064 -3.656848 4.225266 0.423602 7.377129 -7.952614 8.727269 -9.316474 48.330269 57.895798 46.302513 6.718246 -7.997087 9.060049 -9.754625 -8.998256 5.613673 6.165681 1.279106 3.219025 1.744987 -6.334983 -0.189953 0.196420 3.539464 -2.415287 0.000000 0.000000 0.000000 -5.863739 -3.896608 7.179832 8.921710 4.097105 -14.928529 -4.402991 -0.381756 -6.673298 0.000000 0.000000 0.000000 
0.023378 86.361534 0.069939 -2.476570 5.703584 8.096342 1.662061 -6.869941 -1.014753 1.403319 -4.364615 -0.320992 3.099242 9.077644 1.537725 0.569159 9.101148 2.131536 2.379062 8.134648 -2.145507 -70.420349 26.791958 -23.518467 -13.396870 0.575560 -3.676085 4.231144 0.417036 7.377362 -7.748747 8.686479 -9.265960 48.303955 57.842304 46.306122 6.753975 -8.081064 9.045946 -9.881375 -9.083638 5.537288 6.167410 1.255881 3.216562 1.743776 -6.331027 -0.162104 0.221837 3.584784 -2.334695 0.000000 0.000000 0.000000 -5.827288 -3.861074 7.226008 8.866076 4.048488 -13.706615 -4.977513 -0.378150 -7.538552 0.000000 0.000000 0.000000 
